<svg width="40.000000" height="40.000000" viewBox="0 0 40 40" fill="none" xmlns="http://www.w3.org/2000/svg">
	<desc>
			Created with AutoMain.
	</desc>
	<defs/>
	<path id="[]" d="M4.28 3.71L4.28 18.76L8.19 18.76L8.19 17.48L5.71 17.48L5.71 5L8.19 5L8.19 3.71L4.28 3.71ZM12.99 17.48L12.99 18.76L16.92 18.76L16.92 3.71L12.99 3.71L12.99 5L15.47 5L15.47 17.48L12.99 17.48Z" fill="#70A1D7" fill-opacity="1.000000" fill-rule="evenodd"/>
	<path id="{}" d="M25.69 18.44Q26.37 18.76 27.31 18.76L28.03 18.76L28.03 17.48L27.31 17.48Q26.56 17.48 26.16 17.13Q26.09 17.07 26.04 17Q25.77 16.67 25.8 16.1L25.96 13.48Q26.01 12.62 25.63 12.04Q25.55 11.92 25.45 11.81Q25.32 11.66 25.16 11.55Q24.82 11.31 24.37 11.23Q24.86 11.14 25.22 10.87Q25.35 10.77 25.46 10.65Q25.54 10.56 25.62 10.45Q26.01 9.87 25.96 9L25.8 6.37Q25.77 5.8 26.04 5.47Q26.09 5.4 26.16 5.34Q26.56 5 27.31 5L28.03 5L28.03 3.71L27.31 3.71Q26.37 3.71 25.69 4.03Q25.2 4.25 24.88 4.63Q24.76 4.77 24.66 4.93Q24.31 5.52 24.35 6.37L24.51 9Q24.56 9.84 24.26 10.22Q23.96 10.6 22.92 10.6L21.15 10.6L21.15 11.87L22.92 11.87Q23.96 11.87 24.26 12.25Q24.56 12.63 24.51 13.48L24.35 16.1Q24.31 16.93 24.66 17.53Q24.77 17.71 24.9 17.87Q25.22 18.23 25.69 18.44ZM30.75 17.48L30.75 18.76L31.47 18.76Q32.42 18.76 33.1 18.44Q33.57 18.23 33.88 17.87Q34.02 17.71 34.13 17.53Q34.14 17.52 34.14 17.51Q34.48 16.92 34.43 16.1L34.27 13.48Q34.23 12.63 34.54 12.25Q34.85 11.87 35.88 11.87L37.63 11.87L37.63 10.6L35.88 10.6Q34.84 10.6 34.53 10.22Q34.23 9.84 34.27 9L34.43 6.37Q34.48 5.52 34.13 4.93Q34.03 4.77 33.91 4.63Q33.59 4.25 33.1 4.03Q32.42 3.71 31.47 3.71L30.75 3.71L30.75 5L31.47 5Q32.23 5 32.63 5.34Q32.7 5.4 32.76 5.48Q33.02 5.81 33 6.37L32.84 9Q32.78 9.87 33.17 10.45Q33.24 10.55 33.33 10.65Q33.44 10.78 33.58 10.88Q33.93 11.14 34.42 11.23Q33.98 11.31 33.64 11.55Q33.47 11.66 33.34 11.81Q33.24 11.92 33.16 12.04Q32.78 12.62 32.84 13.48L33 16.1Q33.02 16.66 32.76 16.99Q32.7 17.07 32.63 17.13Q32.23 17.48 31.47 17.48L30.75 17.48Z" fill="#A1DE93" fill-opacity="1.000000" fill-rule="evenodd"/>
	<path id="()" d="M5.87 34.42Q7.02 35.49 8.76 35.92L8.76 34.49Q8.06 34.33 7.48 33.97Q7.21 33.8 6.97 33.59Q6.86 33.49 6.75 33.39Q6.15 32.78 5.8 31.92Q5.39 30.91 5.39 29.67L5.39 26.8Q5.39 25.53 5.81 24.52Q6.18 23.63 6.8 23Q6.89 22.92 6.98 22.83Q7.24 22.6 7.53 22.42Q8.09 22.07 8.76 21.92L8.76 20.55Q7.37 20.9 6.33 21.7Q6.26 21.75 6.2 21.8Q5.7 22.21 5.31 22.7Q4.85 23.27 4.54 23.96Q3.96 25.23 3.96 26.8L3.96 29.67Q3.96 31.63 4.81 33.09Q4.99 33.41 5.22 33.71Q5.51 34.09 5.87 34.42ZM12.43 34.49L12.43 35.92Q14.18 35.49 15.33 34.42Q15.68 34.09 15.97 33.71Q16.2 33.4 16.39 33.08Q17.24 31.62 17.24 29.67L17.24 26.8Q17.24 25.23 16.65 23.96Q16.33 23.26 15.87 22.69Q15.48 22.21 14.99 21.8Q13.92 20.92 12.43 20.55L12.43 21.92Q13.1 22.07 13.65 22.41Q13.94 22.6 14.21 22.83Q14.32 22.94 14.43 23.04Q15.02 23.66 15.38 24.52Q15.79 25.53 15.79 26.8L15.79 29.67Q15.79 30.91 15.38 31.92Q15.04 32.78 14.43 33.39Q14.33 33.49 14.22 33.59Q14.04 33.75 13.83 33.89Q13.22 34.31 12.43 34.49Z" fill="#F7F48B" fill-opacity="1.000000" fill-rule="evenodd"/>
	<path id="&lt;&gt;" d="M22.04 29.51L29.4 33.35L36.75 29.51L36.75 27.92L29.4 24.07L22.04 27.92L22.04 29.51ZM34.8 29.12L29.46 31.83L24.11 29.03Q23.83 28.89 23.62 28.8Q23.41 28.7 23.33 28.68Q23.41 28.65 23.62 28.57Q23.83 28.48 24.11 28.33L29.38 25.58L34.84 28.39Q35.11 28.54 35.3 28.62Q35.49 28.7 35.56 28.73Q35.49 28.76 35.31 28.86Q35.12 28.96 34.8 29.12Z" fill="#F47C7C" fill-opacity="1.000000" fill-rule="evenodd"/>
</svg>